<svg xmlns="http://www.w3.org/2000/svg" width="61.579" height="25.419" viewBox="0 0 61.579 25.419">
  <path id="driving" d="M61.569,93.59A1.224,1.224,0,0,0,60.2,92.534a25.8,25.8,0,0,1-4.188.213V76.269a2.449,2.449,0,1,0-4.9,0V92.05a21.972,21.972,0,0,1-6.124-2.638V76.269a2.449,2.449,0,1,0-4.9,0v9.185a27.728,27.728,0,0,0-6.124-4.587v-4.6a2.449,2.449,0,1,0-4.9,0V78.84a24.9,24.9,0,0,0-6.124-.969v-1.6a2.449,2.449,0,1,0-4.9,0v1.876a33.035,33.035,0,0,0-4.332.915c-.613.172-1.209.359-1.792.555V76.269a2.449,2.449,0,1,0-4.9,0v5.355a39.464,39.464,0,0,0-6.549,3.94A1.225,1.225,0,1,0,1.98,87.494a36.568,36.568,0,0,1,5.04-3.122V96.789a2.449,2.449,0,1,0,4.9,0V82.209c.788-.285,1.607-.553,2.455-.791a31.587,31.587,0,0,1,3.669-.805V96.789a2.449,2.449,0,0,0,4.9,0V80.3a21.985,21.985,0,0,1,6.124,1.07V96.789a2.449,2.449,0,0,0,4.9,0V83.684a26.449,26.449,0,0,1,4.608,3.711q.746.746,1.516,1.42v7.974a2.449,2.449,0,1,0,4.9,0V92.256a23.968,23.968,0,0,0,6.124,2.329v2.2a2.449,2.449,0,1,0,4.9,0V95.2c.249.007.5.012.751.012a28.985,28.985,0,0,0,3.754-.25A1.223,1.223,0,0,0,61.569,93.59Z" transform="translate(-0.001 -73.82)" fill="#fff"/>
</svg>
