<svg xmlns="http://www.w3.org/2000/svg" width="33.876" height="52.158" viewBox="0 0 33.876 52.158">
  <g id="stretch" transform="translate(-10.47 0)">
    <g id="Grupo_55" data-name="Grupo 55" transform="translate(10.47 0)">
      <path id="Trazado_191" data-name="Trazado 191" d="M41.492,27A34.524,34.524,0,0,0,34.984,7.532,7.6,7.6,0,0,0,33.712,6.19,15.5,15.5,0,0,0,28.121.776,5.541,5.541,0,0,0,19.81,4.411c-.866,3.621-.211,8.071-.255,11.752q-.041,3.629-.082,7.259a26.161,26.161,0,0,1,7.373-.732q.042-3.671.084-7.338a23.787,23.787,0,0,1,3.314,9.307c-6.461-1.14-12.959-.346-18.487,3.643-3.05,2.2-.113,7.313,2.972,5.087,5.157-3.722,10.872-3.991,16.879-2.4a3.1,3.1,0,0,0,.891.1C35.748,33.572,41.677,32.239,41.492,27Z" transform="translate(-10.47 0)" fill="#f1e8e6"/>
      <path id="Trazado_192" data-name="Trazado 192" d="M20.635,37.372q-.09,7.9-.181,15.8c-.053,4.75,7.311,4.747,7.365,0l-.132-17.093A16.122,16.122,0,0,0,20.635,37.372Z" transform="translate(-11.738 -4.581)" fill="#f1e8e6"/>
      <path id="Trazado_193" data-name="Trazado 193" d="M41.672,38.091a5.892,5.892,0,1,0,5.888,5.89A5.891,5.891,0,0,0,41.672,38.091Z" transform="translate(-13.684 -4.837)" fill="#f1e8e6"/>
    </g>
  </g>
</svg>
