<svg xmlns="http://www.w3.org/2000/svg" width="43.834" height="53" viewBox="0 0 43.834 53">
  <g id="book" transform="translate(-41 1)">
    <circle id="Elipse_41" data-name="Elipse 41" cx="9" cy="9" r="9" transform="translate(53.917 -1)" fill="#f1e8e6"/>
    <path id="Trazado_194" data-name="Trazado 194" d="M157.439,181.515a11.7,11.7,0,0,1-12.734,0,17.823,17.823,0,0,0-5.543,3.386l11.911,4.466,11.911-4.466a17.821,17.821,0,0,0-5.543-3.386Z" transform="translate(-88.155 -163.204)" fill="#f1e8e6"/>
    <path id="Trazado_195" data-name="Trazado 195" d="M413.548,310h-1.019A1.529,1.529,0,0,0,411,311.529v4.078a1.529,1.529,0,0,0,1.529,1.529h1.019a3.568,3.568,0,1,0,0-7.136Z" transform="translate(-332.282 -278.592)" fill="#f1e8e6"/>
    <path id="Trazado_196" data-name="Trazado 196" d="M81.658,231.876A1.529,1.529,0,0,0,81,233.133v3.4h.51a4.592,4.592,0,0,1,4.587,4.587V245.2a4.592,4.592,0,0,1-4.587,4.587H81v3.222a1.529,1.529,0,0,0,.992,1.432l15.318,5.744V237.043L83.066,231.7A1.528,1.528,0,0,0,81.658,231.876Z" transform="translate(-35.922 -208.187)" fill="#f1e8e6"/>
    <path id="Trazado_197" data-name="Trazado 197" d="M282.213,245.2v-4.078a4.592,4.592,0,0,1,4.587-4.587h.51v-3.4a1.529,1.529,0,0,0-2.066-1.432L271,237.043v23.144l15.318-5.744a1.529,1.529,0,0,0,.992-1.432v-3.222h-.51A4.592,4.592,0,0,1,282.213,245.2Z" transform="translate(-206.554 -208.187)" fill="#f1e8e6"/>
    <path id="Trazado_198" data-name="Trazado 198" d="M47.116,315.607v-4.078A1.529,1.529,0,0,0,45.587,310H44.568a3.568,3.568,0,0,0,0,7.136h1.019A1.529,1.529,0,0,0,47.116,315.607Z" transform="translate(0 -278.592)" fill="#f1e8e6"/>
  </g>
</svg>
