<svg id="sport-team" xmlns="http://www.w3.org/2000/svg" width="48.172" height="48.172" viewBox="0 0 48.172 48.172">
  <path id="Trazado_181" data-name="Trazado 181" d="M14.014,8.029a4.014,4.014,0,1,1,4.014-4.014A4.018,4.018,0,0,1,14.014,8.029Z" transform="translate(10.072)" fill="#fff"/>
  <path id="Trazado_182" data-name="Trazado 182" d="M22.014,23.029a4.014,4.014,0,1,1,4.014-4.014A4.018,4.018,0,0,1,22.014,23.029Z" transform="translate(18.129 15.108)" fill="#fff"/>
  <path id="Trazado_183" data-name="Trazado 183" d="M6.014,23.029a4.014,4.014,0,1,1,4.014-4.014A4.018,4.018,0,0,1,6.014,23.029Z" transform="translate(2.014 15.108)" fill="#fff"/>
  <path id="Trazado_184" data-name="Trazado 184" d="M24.057,10.52A5.524,5.524,0,0,0,18.538,5H13.52A5.524,5.524,0,0,0,8,10.52v1a1.506,1.506,0,0,0,1.505,1.505H22.552a1.506,1.506,0,0,0,1.505-1.505Z" transform="translate(8.057 5.036)" fill="#fff"/>
  <path id="Trazado_185" data-name="Trazado 185" d="M26.538,20H21.52A5.524,5.524,0,0,0,16,25.52v1a1.506,1.506,0,0,0,1.505,1.505H30.552a1.506,1.506,0,0,0,1.505-1.505v-1A5.524,5.524,0,0,0,26.538,20Z" transform="translate(16.115 20.144)" fill="#fff"/>
  <path id="Trazado_186" data-name="Trazado 186" d="M10.538,20H5.52A5.524,5.524,0,0,0,0,25.52v1a1.506,1.506,0,0,0,1.505,1.505H14.552a1.506,1.506,0,0,0,1.505-1.505v-1A5.524,5.524,0,0,0,10.538,20Z" transform="translate(0 20.144)" fill="#fff"/>
  <path id="Trazado_187" data-name="Trazado 187" d="M9.507,24.05a1.505,1.505,0,0,1-.859-2.742l5.875-4.067V11.505a1.505,1.505,0,0,1,3.011,0v6.523a1.508,1.508,0,0,1-.648,1.238l-6.523,4.516a1.5,1.5,0,0,1-.855.267Z" transform="translate(8.058 10.072)" fill="#fff"/>
  <path id="Trazado_188" data-name="Trazado 188" d="M19.277,20.777a1.5,1.5,0,0,1-.855-.267L11.9,15.994a1.505,1.505,0,0,1,1.714-2.475l6.523,4.516a1.505,1.505,0,0,1-.859,2.742Z" transform="translate(11.331 13.345)" fill="#fff"/>
</svg>
