<svg xmlns="http://www.w3.org/2000/svg" width="26.559" height="26.471" viewBox="0 0 26.559 26.471">
  <g id="logout" transform="translate(-4 -0.85)">
    <g id="Grupo_57" data-name="Grupo 57" transform="translate(4 0.85)">
      <g id="Grupo_56" data-name="Grupo 56" transform="translate(0 0)">
        <path id="Trazado_199" data-name="Trazado 199" d="M13.236,25.115H3.309a1.1,1.1,0,0,1-1.1-1.1V4.159a1.1,1.1,0,0,1,1.1-1.1h9.927a1.1,1.1,0,0,0,0-2.206H3.309A3.313,3.313,0,0,0,0,4.159V24.012a3.313,3.313,0,0,0,3.309,3.309h9.927a1.1,1.1,0,1,0,0-2.206Z" transform="translate(0 -0.85)" fill="#022142"/>
      </g>
    </g>
    <g id="Grupo_59" data-name="Grupo 59" transform="translate(12.824 6.365)">
      <g id="Grupo_58" data-name="Grupo 58">
        <path id="Trazado_200" data-name="Trazado 200" d="M187.507,114.1l-6.706-6.618a1.1,1.1,0,0,0-1.549,1.571l4.792,4.729H171.2a1.1,1.1,0,0,0,0,2.206h12.842l-4.792,4.729a1.1,1.1,0,1,0,1.549,1.571l6.706-6.618a1.1,1.1,0,0,0,0-1.571Z" transform="translate(-170.1 -107.165)" fill="#022142"/>
      </g>
    </g>
  </g>
</svg>
