<svg xmlns="http://www.w3.org/2000/svg" width="30" height="44" viewBox="0 0 30 44">
  <g id="_12-patience" data-name="12-patience" transform="translate(-31.634 0.119)">
    <g id="Glyph" transform="translate(32 -0.5)">
      <rect id="Rect치ngulo_109" data-name="Rect치ngulo 109" width="30" height="9" rx="4.5" transform="translate(-0.366 0.381)" fill="#f1e8e6"/>
      <rect id="Rect치ngulo_110" data-name="Rect치ngulo 110" width="30" height="9" rx="4.5" transform="translate(-0.366 35.381)" fill="#f1e8e6"/>
      <path id="Trazado_190" data-name="Trazado 190" d="M42.549,69.951H66.992a17.191,17.191,0,0,0-3.936-6.005c-1.735-1.936-2.8-3.212-2.8-4.97s1.063-3.034,2.8-4.97A17.178,17.178,0,0,0,66.992,48H65.035a16.821,16.821,0,0,1-3.341,4.785c-1.509,1.683-2.937,3.284-3.213,5.438-2.59,1.2-5.219,2.29-7.931,3.272a5.956,5.956,0,0,0,.562-2.519c0-2.547-1.586-4.317-3.265-6.191A16.821,16.821,0,0,1,44.506,48H42.549a17.191,17.191,0,0,0,3.936,6.005c1.735,1.936,2.8,3.212,2.8,4.97s-1.063,3.034-2.8,4.97A17.191,17.191,0,0,0,42.549,69.951Zm15.88-7.317A1.829,1.829,0,1,1,56.6,64.463,1.829,1.829,0,0,1,58.429,62.634Z" transform="translate(-40.137 -36.594)" fill="#f1e8e6"/>
    </g>
  </g>
</svg>
